#!OML:ASF F:\VICON\USERDATA\INSTALL\rory3\rory3.ASF
:FULLY-SPECIFIED
:DEGREES
242
root 1.22946 12.9023 -3.00388 29.1261 -45.4436 -1.59944
lowerback 36.177 0.696013 -1.59598
upperback 5.91757 0.375356 3.2166
thorax -11.5611 0.0933265 4.19258
lowerneck 5.39183 5.11052 -8.02323
upperneck 32.9786 8.72825 -9.94754
head 9.9536 2.01353 -1.67696
rclavicle 2.127e-014 -5.70512e-014
rhumerus -55.4453 40.5942 -87.9727
rradius 117.321
rwrist 45.3424
rhand -58.0606 2.20214
rfingers 7.12502
rthumb -30.3037 -25.3297
lclavicle 2.127e-014 -5.70512e-014
lhumerus -52.6996 -42.1171 90.0705
lradius 101.194
lwrist -26.13
lhand -57.506 32.6779
lfingers 7.12502
lthumb -29.7745 60.3058
rfemur -92.2435 -17.1309 14.3237
rtibia 88.9517
rfoot -17.3151 1.57812
rtoes -20.3225
lfemur -96.0186 14.5874 -16.4963
ltibia 89.2254
lfoot -15.1969 3.30508
ltoes -13.1262
243
root 1.25641 12.8137 -3.02343 28.8581 -45.5349 -1.86035
lowerback 36.423 0.781451 -1.42337
upperback 6.03962 0.547326 3.34714
thorax -11.5295 0.157032 4.1715
lowerneck 5.3721 5.01782 -8.03191
upperneck 33.0622 8.58487 -9.82814
head 9.97834 1.95204 -1.64141
rclavicle 1.92821e-014 6.26172e-015
rhumerus -55.5426 40.4014 -87.83
rradius 117.763
rwrist 45.5826
rhand -58.4064 1.91781
rfingers 7.12502
rthumb -30.6335 -25.5529
lclavicle 1.92821e-014 6.26172e-015
lhumerus -52.7021 -42.1684 90.0465
lradius 101.384
lwrist -26.4058
lhand -57.7965 33.0246
lfingers 7.12502
lthumb -30.0517 60.6025
rfemur -92.4669 -17.0911 14.4166
rtibia 89.6736
rfoot -17.2805 1.80856
rtoes -19.9576
lfemur -96.2522 14.8254 -16.3296
ltibia 90.074
lfoot -15.4675 3.22245
ltoes -13.4792
244
root 1.28429 12.7326 -3.03995 28.4777 -45.7428 -1.91834
lowerback 36.5686 1.01264 -1.57381
upperback 6.16718 0.788926 3.53525
thorax -11.4665 0.262555 4.35555
lowerneck 5.41807 4.82445 -7.8871
upperneck 33.1114 8.35084 -9.96321
head 9.9938 1.85052 -1.73
rclavicle -4.9895e-014 -2.18663e-015
rhumerus -55.5877 40.2082 -87.4598
rradius 118.255
rwrist 46.0365
rhand -58.6941 1.24892
rfingers 7.12502
rthumb -30.9078 -26.1701
lclavicle -4.9895e-014 -2.18663e-015
lhumerus -52.6582 -42.1373 90.0969
lradius 101.631
lwrist -26.8865
lhand -57.6381 32.585
lfingers 7.12502
lthumb -29.9006 60.1902
rfemur -92.6937 -17.1043 14.3369
rtibia 90.3253
rfoot -17.1886 2.1376
rtoes -19.3726
lfemur -96.4687 15.02 -16.3702
ltibia 90.9062
lfoot -15.7334 3.21466
ltoes -13.7645
245
root 1.30798 12.6551 -3.05237 28.3043 -46.2087 -2.21309
lowerback 36.4121 0.69678 -1.01048
upperback 6.35476 0.527279 3.07127
thorax -11.1526 0.115716 3.65659
lowerneck 5.38039 5.06667 -8.12093
upperneck 32.9264 8.58477 -9.62749
head 9.90835 1.96423 -1.55242
rclavicle -7.15625e-015 3.19049e-014
rhumerus -55.577 40.3879 -88.0501
rradius 118.703
rwrist 46.6836
rhand -58.6953 0.798869
rfingers 7.12502
rthumb -30.9089 -26.6199
lclavicle -7.15625e-015 3.19049e-014
lhumerus -52.6607 -41.6074 89.1295
lradius 101.998
lwrist -27.407
lhand -57.365 31.3541
lfingers 7.12502
lthumb -29.6399 59.006
rfemur -92.9532 -16.8189 14.303
rtibia 90.9061
rfoot -17.1264 2.40628
rtoes -19.2335
lfemur -96.6009 15.4203 -16.2382
ltibia 91.7154
lfoot -16.1058 3.31066
ltoes -14.8735
246
root 1.32933 12.5684 -3.07453 28.2453 -46.6645 -2.63002
lowerback 36.4111 1.28885 -1.51138
upperback 6.53837 1.10644 3.45341
thorax -11.009 0.379656 4.09906
lowerneck 5.41235 4.75237 -7.80166
upperneck 32.8491 8.24991 -10.0401
head 9.89354 1.82372 -1.77246
rclavicle -6.42074e-014 1.39149e-015
rhumerus -55.6674 40.0263 -87.5413
rradius 119.264
rwrist 46.918
rhand -58.715 0.888739
rfingers 7.12502
rthumb -30.9277 -26.5265
lclavicle -6.42074e-014 1.39149e-015
lhumerus -52.4705 -41.8765 89.3598
lradius 102.146
lwrist -27.5052
lhand -57.37 30.5465
lfingers 7.12502
lthumb -29.6447 58.1975
rfemur -93.3053 -16.4157 14.3545
rtibia 91.5272
rfoot -16.991 2.58785
rtoes -18.5952
lfemur -96.9742 16.1207 -16.2199
ltibia 92.5825
lfoot -16.3761 3.07063
ltoes -15.2261
